<svg viewBox="454.5 0 588 135.93827160493828" xmlns:xlink="http://www.w3.org/1999/xlink" version="1.1" xmlns="http://www.w3.org/2000/svg" style="max-height: 500px" width="588" height="135.93827160493828"><svg y="0" x="0" viewBox="0 0 566 121" data-id="lg_eZrbAW8YgONekS3fVZ" data-version="2" height="121" width="1500" xml:space="preserve"><rect fill="transparent" height="100%" width="100%"/><path d="M78.87 61.12q1.32-3.17 1.32-5.94 0-8.58-13.07-8.58-6.07 0-13.13 1.78-7.06 1.78-11.16 3.89-7.12 3.57-10.49 6.93-3.37 3.37-3.5 9.44-.13 9.24-.53 16.17-.39 6.93-1.45 13.66 15.97-5.94 29.57-15.04 8.98-5.94 14.52-10.89 5.54-4.95 7.92-11.42M30.43 32.47q0 1.98-.27 6.47-.26 2.64-.26 4.23l5.67-7.4q4.76-6.2 7.26-9.7 2.51-3.5 4.62-7.59-4.62 1.06-8.18 2.31-3.56 1.26-6.47 3.24-1.58 1.18-2.18 1.98-.59.79-.59 1.71 0 .79.2 2.11.2 1.32.2 2.64m50.02-3.56q7.13 1.19 10.5 5.54 3.36 4.36 3.36 10.83 0 4.75-1.98 11.09-5.14 16.23-23.49 32.34-14.39 12.27-31.95 21.25-5.67 3.03-12.93 6.07-7.26 3.04-12.41 3.04-3.96 0-5.28-2.38-.53-.92-.53-2.11 0-1.59.79-2.97.8-1.39 2.51-3.9 1.98-2.64 2.51-3.96 1.19-3.43 1.19-9.5v-3.17q0-1.05-.07-2.51-.06-1.45.07-3.16 1.05-14.26 1.45-21.39 0-1.85.13-3.23.13-1.39.27-2.44.13-1.32.26-3.3.13-1.98.13-4.62 0-2.78-.39-5.28Q14.06 41.71 13 40q-.13-.4-1.25-1.52t-1.26-1.65q-.13-.53-.13-1.45 0-4.36 5.02-12.28 1.45-2.24 2.9-3.83 1.45-1.58 3.17-2.24.53-.26 1.72-.26h1.12q.72 0 1.12-.14 1.45-.52 2.97-1.98 1.52-1.45 1.78-1.71 1.45-1.45 2.77-2.38 4.23-3.03 11.09-6.33Q50.89.93 55.77.93q4.75 0 6.07 3.82.53 1.46.53 3.17 0 5.02-3.43 10.89-3.43 5.88-8.98 13.14-.79 1.18-2.64 3.69 14.26-7.26 26.93-7.26 3.43 0 6.2.53" fill="#fff"/><rect transform="translate(50.53 60.5)" ry="0" rx="0" fill="none" y="-59.07" x="-44.28" height="118.14" width="88.57"/><path d="M134.31 82.24q3.04-7.13 3.04-14.65 0-5.94-2.05-10.89t-6.4-8.12q-2.91-2.11-5.55-2.11-1.05 0-2.64.52 1.19.53 1.19 1.85 0 .79-.53 1.85-3.03 5.81-4.75 12.61-1.71 6.79-1.71 13.66 0 7.92 2.37 15.05 1.59 3.96 3.3 6.2.79.92 1.59 1.32 3.82-2.64 6.93-7.39 3.1-4.75 5.21-9.9m-1.85-46.33q6.47 1.32 11.09 5.67 4.62 4.36 7 10.5 2.37 6.13 2.37 12.73 0 7.79-3.03 15.98-3.04 8.18-8.32 15.04-5.28 6.87-11.75 10.83-6.07 3.69-11.88 3.69-5.81 0-10.16-3.56-4.36-3.56-6.34-10.3-2.24-6.86-2.24-15.44 0-5.15.79-10.03-.92.26-2.77.26-4.49 0-4.49-3.03 0-1.06.26-1.72 4.49-12.54 13.53-21.85 9.05-9.3 20.79-9.3 1.72 0 5.15.53" fill="#fff"/><rect transform="translate(123.33 73.36)" ry="0" rx="0" fill="none" y="-37.48" x="-30.09" height="74.97" width="60.19"/><path d="M197.27 82.24q3.04-7.13 3.04-14.65 0-5.94-2.05-10.89-2.04-4.95-6.4-8.12-2.9-2.11-5.54-2.11-1.06 0-2.64.52 1.19.53 1.19 1.85 0 .79-.53 1.85-3.04 5.81-4.75 12.61-1.72 6.79-1.72 13.66 0 7.92 2.38 15.05 1.58 3.96 3.3 6.2.79.92 1.58 1.32 3.83-2.64 6.93-7.39 3.1-4.75 5.21-9.9m-1.84-46.33q6.46 1.32 11.08 5.67 4.62 4.36 7 10.5 2.38 6.13 2.38 12.73 0 7.79-3.04 15.98-3.04 8.18-8.32 15.04-5.28 6.87-11.74 10.83-6.08 3.69-11.88 3.69-5.81 0-10.17-3.56-4.35-3.56-6.33-10.3-2.25-6.86-2.25-15.44 0-5.15.79-10.03-.92.26-2.77.26-4.49 0-4.49-3.03 0-1.06.27-1.72 4.49-12.54 13.53-21.85 9.04-9.3 20.79-9.3 1.71 0 5.15.53" fill="#fff"/><rect transform="translate(186.29 73.36)" ry="0" rx="0" fill="none" y="-37.48" x="-30.1" height="74.97" width="60.2"/><path d="m275.29 77.62.39 2.77q2.25 16.5 3.3 23.1.53 3.3-2.9 5.81-3.43 2.51-7.26 2.51-2.25 0-3.7-.99-1.45-.99-1.71-3.11l-1.06-8.58q-1.85-14.52-3.04-21.78-.66-4.22-1.84-7.06-1.19-2.84-3.83-4.29-1.72-.79-3.96-.79-2.77 0-6.21.92-2.37 19.8-7.78 40.53-.66 2.77-4.69 4.82-4.03 2.04-7.72 2.04-2.38 0-3.57-.86-1.18-.85-.66-2.7 5.81-20.86 8.32-41.71-2.64 0-4.62-.99t-1.98-2.58q0-1.85 2.64-3.69l5.15-3.7q1.05-11.75 1.05-26.66 0-8.45-.39-16.9-.13-2.64 3.43-4.75t7.39-2.11q2.11 0 3.5.85 1.39.86 1.52 2.71.53 8.98.53 19.93 0 9.51-.27 14.13 4.75-4.23 9.24-8.85l3.96-3.83q1.85-1.71 4.23-2.83 2.37-1.13 4.75-1.13 1.45 0 3.17.73 1.71.73 1.71 2.05 0 .79-.53 1.45-8.05 11.35-23.49 23.36 4.35-.92 7.79-.92 9.63 0 14.38 6.33 2.12 2.78 2.97 6.01.86 3.23 1.26 6.4.39 3.17.53 4.36" fill="#fff"/><rect transform="translate(249.48 60.7)" ry="0" rx="0" fill="none" y="-53.33" x="-30.26" height="106.65" width="60.52"/><path d="M345.64 30.36q.4-2.51 4.36-2.51 2.64 0 5.67 1.19 3.04 1.19 5.02 3.24 1.98 2.04 1.58 4.15-6.07 41.32-21.78 76.56-1.05 2.38-4.62 2.38-2.24 0-5.28-.92-8.05-2.51-11.02-9.57-2.97-7.07-3.63-17.36l-.26-3.3q-4.75 10.03-13.47 30.62-1.18 2.64-4.88 2.64-2.64 0-5.54-1.32-2.91-1.32-4.69-3.3-1.78-1.98-1.52-4.09 1.72-11.35 1.72-26.53 0-7-.53-20.73-.53-13.72-.53-20.46l.13-6.07q.14-1.85 1.52-2.77 1.39-.92 3.63-.92 3.96 0 7.92 2.17 3.96 2.18 3.83 4.95l-.13 7q0 7.79.53 23.36 5.67-11.61 12.4-22.83 1.46-2.38 5.42-2.38 3.82 0 7.45 2.11 3.63 2.12 3.77 5.02.13 1.98.13 6.07 0 3.57-.27 10.69-.26 8.85-.13 13.2v4.36q9.24-26.93 13.2-54.65" fill="#fff"/><rect transform="translate(324.47 73.17)" ry="0" rx="0" fill="none" y="-44.81" x="-38.51" height="89.63" width="77.02"/><path d="M402.93 82.24q3.04-7.13 3.04-14.65 0-5.94-2.05-10.89-2.04-4.95-6.4-8.12-2.9-2.11-5.55-2.11-1.05 0-2.64.52 1.19.53 1.19 1.85 0 .79-.53 1.85-3.03 5.81-4.75 12.61-1.71 6.79-1.71 13.66 0 7.92 2.37 15.05 1.59 3.96 3.3 6.2.79.92 1.59 1.32 3.83-2.64 6.93-7.39 3.1-4.75 5.21-9.9m-1.85-46.33q6.47 1.32 11.09 5.67 4.62 4.36 7 10.5 2.37 6.13 2.37 12.73 0 7.79-3.03 15.98-3.04 8.18-8.32 15.04-5.28 6.87-11.75 10.83-6.07 3.69-11.88 3.69-5.81 0-10.16-3.56-4.36-3.56-6.34-10.3-2.24-6.86-2.24-15.44 0-5.15.79-10.03-.92.26-2.77.26-4.49 0-4.49-3.03 0-1.06.26-1.72 4.49-12.54 13.53-21.85 9.05-9.3 20.79-9.3 1.72 0 5.15.53" fill="#fff"/><rect transform="translate(391.95 73.36)" ry="0" rx="0" fill="none" y="-37.48" x="-30.09" height="74.97" width="60.19"/><path d="m447.15 66.66 3.83-3.17q5.15-4.09 8.38-7.26 3.23-3.16 4.95-6.33-7.13-1.85-21.12-6.07l-.66 26.79q3.96-3.3 4.62-3.96m25.08 15.31q1.06-2.11 4.49-3.63 3.43-1.51 6.6-1.51 4.35 0 4.35 2.77 0 .79-.39 1.85-5.41 12.67-8.19 24.55-.66 2.64-3.82 4.88-1.32 1.72-4.03 2.91-2.71 1.18-5.35 1.18-2.24 0-3.63-.92-1.38-.92-1.51-2.9-.53-8.58-5.61-15.71-5.09-7.13-13.01-9.24l-.66 19.14q-.13 2.51-4.15 4.62-4.03 2.11-7.73 2.11-1.98 0-3.16-.73-1.19-.72-1.19-2.31l.39-18.21q-1.71-1.19-1.71-2.77 0-1.85 1.98-3.57.66-24.02 1.58-47.91.13-2.78 3.76-4.82 3.63-2.05 7.33-2.05 2.77 0 3.96 1.32 14.39 3.96 29.83 8.71 2.38-.52 3.3-.52 2.25 0 3.5.99t1.25 2.97q0 5.41-3.56 9.96-3.56 4.56-9.9 10.1l-2.64 2.38q-6.34 6.2-12.28 10.95 10.83 3.04 17.43 12.01.53-1.32 2.77-6.6" fill="#fff"/><rect transform="translate(456.3 72.83)" ry="0" rx="0" fill="none" y="-42.63" x="-31.88" height="85.27" width="63.75"/><path d="M551.17 33.93q.26.39.52 1.45 1.59 16.23 5.68 51.35l1.72 15.04q.39 2.91-3.24 5.15-3.63 2.25-7.59 2.25-2.37 0-4.02-.99-1.65-.99-1.78-3.11-1.72-18.34-3.96-37.88-3.57 7.66-7.13 14.12-.53 1.06-1.98 2.12-1.72 1.58-4.29 2.57-2.58.99-4.95.99-4.1 0-5.41-2.77-2.38-5.28-4.76-11.35l-.66 3.96q-1.71 10.95-4.62 28.24-.39 2.78-4.42 4.82-4.03 2.05-7.85 2.05-2.12 0-3.3-.79-1.19-.8-.93-2.51 7-46.2 10.96-68.11.53-2.78 4.49-4.89t7.52-1.98q2.11-.26 3.63.33 1.52.6 1.78 2.05 3.3 14.91 8.19 27.32 5.67-12.8 10.82-26.4.79-2.24 4.16-3.83 3.37-1.58 6.66-1.58 3.97 0 4.76 2.38" fill="#fff"/><rect transform="translate(524.16 72.25)" ry="0" rx="0" fill="none" y="-40.2" x="-35.6" height="80.39" width="71.2"/></svg></svg>